<svg width="1095" height="168" viewBox="0 0 1095 168" fill="none" xmlns="http://www.w3.org/2000/svg">
<g filter="url(#filter0_d_0_1)">
<mask id="path-1-outside-1_0_1" maskUnits="userSpaceOnUse" x="4" y="0" width="1087" height="160" fill="black">
<rect fill="white" x="4" width="1087" height="160"/>
<path d="M77.2484 159C66.4131 159 56.5665 157.497 47.7084 154.492C38.8504 151.567 31.2182 147.257 24.812 141.563C18.4848 135.869 13.5812 128.91 10.1013 120.686C6.70043 112.462 5 103.091 5 92.5736C5 80.3163 6.85861 69.1662 10.5758 59.1231C14.293 49.001 19.6711 40.3023 26.7101 33.027C33.8282 25.6727 42.4094 20.058 52.4538 16.1832C62.5773 12.2292 74.0058 10.2522 86.7392 10.2522C92.75 10.2522 98.4049 10.8849 103.704 12.1501C109.003 13.3363 113.669 15.0365 117.703 17.2507C121.736 19.3859 124.86 21.9559 127.075 24.9609C129.369 27.8869 130.515 31.05 130.515 34.4504C130.515 39.1952 129.329 42.7933 126.956 45.2447C124.663 47.6962 121.578 48.9219 117.703 48.9219C115.33 48.9219 113.195 48.6056 111.297 47.973C109.398 47.3403 107.342 46.6286 105.128 45.8378C102.992 45.047 100.461 44.3353 97.5349 43.7027C94.6086 43.0701 90.931 42.7537 86.5019 42.7537C82.4684 42.7537 78.6325 43.6632 74.9944 45.482C71.3563 47.2217 68.074 49.8313 65.1477 53.3108C62.3005 56.7903 60.0464 61.0606 58.3855 66.1216C56.7247 71.1827 55.8942 76.995 55.8942 83.5586C55.8942 88.6987 56.4478 93.5621 57.5551 98.1486C58.7415 102.656 60.5605 106.65 63.0123 110.129C65.5432 113.609 68.7858 116.376 72.7403 118.432C76.7739 120.409 81.6379 121.398 87.3324 121.398C91.2078 121.398 94.6877 120.884 97.7722 119.856C100.936 118.749 103.783 117.483 106.314 116.06C108.924 114.637 111.376 113.371 113.669 112.264C116.042 111.157 118.454 110.604 120.906 110.604C127.233 110.604 131.544 112.067 133.837 114.992C136.21 117.918 137.396 121.833 137.396 126.736C137.396 131.639 135.854 136.067 132.769 140.021C129.685 143.975 125.375 147.375 119.838 150.222C114.381 152.99 108.014 155.125 100.738 156.628C93.4618 158.209 85.6319 159 77.2484 159Z"/>
<path d="M226.739 155.441C208.628 155.441 193.68 150.815 181.895 141.563C170.19 132.232 161.727 119.816 156.507 104.317C155.558 101.549 154.728 98.6627 154.016 95.6577C153.304 92.6526 152.711 89.6081 152.237 86.524C151.762 83.3609 151.327 80.1582 150.932 76.9159C150.615 73.5946 150.378 70.2337 150.22 66.8333C150.062 63.4329 149.983 59.9534 149.983 56.3949C149.983 46.0355 150.892 37.5345 152.711 30.8919C154.53 24.2492 157.496 19.3463 161.609 16.1832C165.8 12.9409 171.337 11.3198 178.218 11.3198C182.884 11.3198 186.72 12.506 189.725 14.8784C192.73 17.2507 194.945 21.2047 196.369 26.7402C197.871 32.2758 198.623 39.8278 198.623 49.3964C198.623 52.2432 198.662 55.0901 198.741 57.9369C198.82 60.7838 198.939 63.5515 199.097 66.2402C199.334 68.9289 199.572 71.5385 199.809 74.0691C200.125 76.5996 200.521 79.051 200.995 81.4234C201.47 83.7167 202.024 85.9309 202.656 88.0661C204.475 94.4715 207.283 99.6512 211.079 103.605C214.955 107.48 220.175 109.417 226.739 109.417C231.01 109.417 234.767 108.548 238.009 106.808C241.252 104.989 244.02 102.498 246.314 99.3348C248.686 96.0926 250.624 92.3759 252.127 88.1847C253.076 85.496 253.906 82.6491 254.618 79.6441C255.33 76.5601 255.884 73.3969 256.279 70.1547C256.675 66.8333 256.951 63.4725 257.11 60.0721C257.347 56.6717 257.465 53.2713 257.465 49.8709C257.465 40.6186 258.335 33.2643 260.075 27.8078C261.815 22.2723 264.465 18.3183 268.024 15.9459C271.583 13.4945 275.972 12.2688 281.192 12.2688C287.124 12.2688 291.672 13.8108 294.835 16.8949C297.999 19.8999 300.134 24.6446 301.242 31.1291C302.428 37.5345 303.021 45.8378 303.021 56.039C303.021 59.6767 302.902 63.2352 302.665 66.7147C302.507 70.1151 302.23 73.5155 301.835 76.9159C301.518 80.2372 301.044 83.519 300.411 86.7613C299.857 89.9244 299.185 93.048 298.394 96.1321C297.603 99.1371 296.694 102.063 295.666 104.91C292.028 115.19 287.005 124.126 280.599 131.718C274.193 139.23 266.482 145.082 257.465 149.273C248.528 153.385 238.286 155.441 226.739 155.441Z"/>
<path d="M359.228 153.425C355.352 153.425 351.754 152.555 348.432 150.815C345.11 149.076 342.065 146.505 339.297 143.105C336.608 139.626 334.236 135.395 332.179 130.413C331.467 128.12 330.756 125.431 330.044 122.347C329.411 119.184 328.778 115.744 328.146 112.027C327.592 108.31 327.078 104.515 326.603 100.64C326.129 96.6857 325.733 92.7713 325.417 88.8964C325.101 84.9424 324.824 81.1862 324.587 77.6276C324.428 74.0691 324.349 70.8268 324.349 67.9009C324.349 53.1131 326.406 41.4094 330.518 32.7898C334.631 24.0911 341.195 17.9229 350.212 14.2853C359.307 10.5686 371.17 8.7102 385.802 8.7102C396.084 8.7102 405.891 9.61961 415.223 11.4384C424.556 13.2572 432.86 16.1832 440.137 20.2162C447.413 24.1702 453.147 29.3498 457.339 35.7553C461.53 42.0816 463.626 49.7918 463.626 58.8859C463.626 65.7658 462.282 71.8153 459.593 77.0345C456.904 82.1747 453.107 86.524 448.204 90.0826C443.379 93.5621 437.606 96.2507 430.883 98.1486C424.161 100.047 416.845 101.154 408.936 101.47C403.716 101.707 398.852 101.589 394.344 101.114C389.915 100.561 385.723 100.284 381.768 100.284C379.317 100.284 377.774 101.193 377.142 103.012C376.588 104.752 376.311 107.124 376.311 110.129C376.311 111.394 376.311 112.818 376.311 114.399C376.39 115.981 376.469 117.681 376.549 119.5C376.628 121.24 376.707 122.979 376.786 124.719C376.944 126.459 377.023 128.12 377.023 129.701C377.102 131.204 377.142 132.548 377.142 133.734C377.142 140.219 375.679 145.122 372.752 148.443C369.905 151.764 365.397 153.425 359.228 153.425ZM382.599 76.6787C386.395 76.6787 390.192 76.481 393.988 76.0856C397.784 75.6111 401.383 74.9389 404.784 74.0691C408.184 73.1201 411.19 71.8944 413.8 70.3919C416.41 68.8103 418.466 66.9124 419.969 64.6982C421.471 62.484 422.223 59.9139 422.223 56.988C422.223 53.7457 421.511 50.978 420.087 48.6847C418.743 46.3914 416.963 44.4935 414.749 42.991C412.534 41.4094 410.122 40.1837 407.512 39.3138C404.902 38.3649 402.292 37.6927 399.682 37.2973C397.151 36.9019 394.897 36.7042 392.92 36.7042C389.361 36.7042 386.237 36.981 383.548 37.5345C380.938 38.0881 378.724 38.958 376.904 40.1441C375.164 41.3303 373.859 42.8724 372.99 44.7703C372.199 46.6682 371.803 48.9615 371.803 51.6501C371.803 54.9715 371.922 57.9765 372.159 60.6652C372.396 63.3539 372.752 65.7262 373.227 67.7823C373.78 69.7593 374.453 71.4199 375.244 72.7643C376.114 74.0295 377.142 75.018 378.328 75.7297C379.594 76.3624 381.017 76.6787 382.599 76.6787Z"/>
<path d="M596.957 153.425C593.556 153.425 591.025 152.713 589.364 151.29C587.782 149.866 586.754 147.494 586.28 144.173C586.121 141.326 586.003 138.36 585.924 135.276C585.924 132.113 585.924 128.95 585.924 125.787C585.924 122.545 585.924 119.421 585.924 116.416C585.924 113.411 585.924 110.604 585.924 107.994C586.003 105.384 586.003 103.17 585.924 101.351C585.924 97.2392 585.528 94.3529 584.737 92.6922C584.026 90.9524 582.918 89.7267 581.416 89.015C579.676 88.2242 576.393 87.552 571.569 86.9985C566.824 86.4449 559.191 86.1682 548.672 86.1682C542.741 86.1682 537.916 86.2077 534.199 86.2868C530.561 86.3659 527.635 86.524 525.42 86.7613C523.285 86.9194 521.584 87.1566 520.319 87.473C519.132 87.7102 518.025 88.0661 516.997 88.5405C515.89 89.015 514.822 89.8058 513.794 90.9129C512.766 91.9409 512.133 93.6807 511.896 96.1321C511.658 97.3183 511.461 98.7417 511.303 100.402C511.223 102.063 511.105 103.961 510.947 106.096C510.788 108.231 510.67 110.643 510.591 113.332C510.512 115.941 510.393 118.907 510.235 122.228C510.156 125.47 510.077 129.108 509.998 133.141C509.602 138.439 508.851 142.472 507.743 145.24C506.636 148.008 505.134 149.866 503.235 150.815C501.337 151.843 498.925 152.357 495.999 152.357C491.649 152.357 488.367 150.42 486.152 146.545C484.017 142.591 482.395 137.649 481.288 131.718C480.893 128.634 480.497 124.877 480.102 120.449C479.785 116.021 479.548 111.394 479.39 106.571C479.232 101.668 479.073 96.8834 478.915 92.2177C478.836 87.552 478.797 83.4399 478.797 79.8814C478.797 74.4249 478.836 69.2848 478.915 64.461C479.073 59.6371 479.311 55.0901 479.627 50.8198C479.943 46.4705 480.26 42.4374 480.576 38.7207C480.972 35.004 481.446 31.6036 482 28.5195C482.949 23.0631 484.175 18.516 485.678 14.8784C487.18 11.2407 489.039 8.51251 491.253 6.69369C493.547 4.87487 496.275 3.96546 499.439 3.96546C503.077 3.96546 505.766 5.27027 507.506 7.87988C509.325 10.4104 510.551 14.9179 511.184 21.4024C511.342 23.6957 511.5 26.0285 511.658 28.4009C511.817 30.6942 511.975 32.9479 512.133 35.1622C512.291 37.3764 512.449 39.4324 512.608 41.3303C512.766 43.1491 512.924 44.7703 513.082 46.1937C513.24 47.6171 513.359 48.7638 513.438 49.6336C513.913 52.4805 514.506 54.7738 515.217 56.5135C516.008 58.1742 517.472 59.2417 519.607 59.7162C522.375 60.2698 526.448 60.6256 531.826 60.7838C537.204 60.8629 542.938 60.9024 549.028 60.9024C554.011 60.9024 558.677 60.9815 563.027 61.1396C567.377 61.2187 571.173 61.2187 574.416 61.1396C577.659 61.0606 579.952 60.8233 581.297 60.4279C582.721 59.8744 583.867 58.8859 584.737 57.4625C585.607 55.96 586.201 53.4294 586.517 49.8709C586.675 48.2102 586.833 46.2332 586.991 43.9399C587.15 41.6466 587.308 39.037 587.466 36.1111C587.703 33.1852 587.94 30.1406 588.178 26.9775C588.415 23.7352 588.731 20.4534 589.127 17.1321C589.839 11.2012 591.144 7.04954 593.042 4.67717C594.94 2.22572 597.313 1 600.16 1C604.193 1 607.238 2.5025 609.295 5.50751C611.43 8.43343 613.051 13.3759 614.159 20.3348C614.712 22.3909 615.147 25.1982 615.464 28.7568C615.859 32.3153 616.175 36.4274 616.413 41.0931C616.729 45.6797 616.927 50.6221 617.006 55.9204C617.164 61.1396 617.243 66.4379 617.243 71.8153C617.243 76.2437 617.164 80.8699 617.006 85.6937C616.848 90.4384 616.61 95.2227 616.294 100.047C616.057 104.791 615.74 109.417 615.345 113.925C614.95 118.353 614.515 122.465 614.04 126.261C613.645 130.057 613.21 133.378 612.735 136.225C611.47 142.314 609.492 146.703 606.803 149.392C604.193 152.081 600.911 153.425 596.957 153.425Z"/>
<path d="M689.434 158.17C679.39 158.17 670.927 156.351 664.046 152.713C657.166 149.076 651.827 143.58 648.031 136.225C644.313 128.871 641.862 119.579 640.675 108.35C640.359 105.661 640.122 102.893 639.964 100.047C639.805 97.1206 639.647 94.1156 639.489 91.0315C639.41 87.8684 639.37 84.6261 639.37 81.3048C639.37 77.9835 639.37 74.5831 639.37 71.1036C639.37 57.5811 640.675 46.4309 643.285 37.6531C645.895 28.7963 649.968 21.8769 655.505 16.8949C661.12 11.9129 668.278 8.39389 676.978 6.33783C685.756 4.28177 696.196 3.25375 708.297 3.25375C714.229 3.25375 719.884 3.53052 725.262 4.08407C730.719 4.55855 735.543 5.3098 739.735 6.33783C743.927 7.36586 747.209 8.67067 749.582 10.2522C752.034 11.7548 753.26 13.5736 753.26 15.7087C753.26 17.9229 752.587 19.7022 751.243 21.0465C749.977 22.3118 748.316 23.1421 746.26 23.5375C743.808 23.8539 740.566 23.9329 736.532 23.7748C732.498 23.5375 728.069 23.3003 723.245 23.0631C718.421 22.8258 713.517 22.7072 708.534 22.7072C701.416 22.7072 695.445 23.2608 690.621 24.3679C685.796 25.3959 681.921 27.1356 678.994 29.5871C676.068 32.0385 673.972 35.3599 672.707 39.551C671.441 43.7422 670.809 48.9219 670.809 55.0901C670.809 58.2533 671.204 60.6652 671.995 62.3258C672.865 63.9074 674.842 64.975 677.927 65.5285C681.011 66.003 685.954 66.2402 692.756 66.2402C694.417 66.2402 696.473 66.2402 698.925 66.2402C701.377 66.1612 703.908 66.0821 706.518 66.003C709.207 65.9239 711.698 65.8844 713.991 65.8844C716.364 65.8844 718.223 65.8844 719.567 65.8844C725.499 65.8844 729.612 66.6356 731.905 68.1381C734.199 69.6406 735.346 71.8549 735.346 74.7808C735.346 78.972 733.962 81.8584 731.194 83.4399C728.505 84.9424 724.906 85.6937 720.398 85.6937C718.421 85.6937 716.246 85.6937 713.873 85.6937C711.5 85.6937 709.009 85.7332 706.399 85.8123C703.868 85.8123 701.416 85.8123 699.044 85.8123C696.671 85.8123 694.535 85.8123 692.637 85.8123C685.598 85.8123 680.378 86.0495 676.978 86.524C673.577 86.9194 671.362 87.8684 670.334 89.3709C669.385 90.7943 668.91 93.0876 668.91 96.2507C668.91 101.47 669.148 106.175 669.622 110.366C670.097 114.478 670.927 118.077 672.114 121.161C673.3 124.166 674.961 126.657 677.096 128.634C679.311 130.611 682.118 132.113 685.519 133.141C688.92 134.09 693.033 134.565 697.857 134.565C703.868 134.565 709.76 134.367 715.534 133.971C721.307 133.576 726.527 133.22 731.194 132.904C735.86 132.508 739.498 132.311 742.108 132.311C745.667 132.311 748.277 133.062 749.938 134.565C751.599 135.988 752.429 138.123 752.429 140.97C752.429 144.133 750.452 146.822 746.497 149.036C742.622 151.25 737.521 153.03 731.194 154.374C724.945 155.718 718.144 156.667 710.788 157.221C703.433 157.853 696.315 158.17 689.434 158.17Z"/>
<path d="M916.111 155.56C912.869 155.56 910.061 154.73 907.688 153.069C905.395 151.487 903.338 149.076 901.519 145.833C900.808 143.698 900.017 141.207 899.147 138.36C898.277 135.434 897.407 132.469 896.537 129.464C895.746 126.459 894.915 123.612 894.045 120.923C893.175 118.156 892.305 115.862 891.435 114.044C890.328 111.513 888.944 109.655 887.283 108.468C885.701 107.282 883.329 106.452 880.165 105.977C878.583 105.819 876.171 105.622 872.928 105.384C869.765 105.068 866.285 104.831 862.489 104.673C858.692 104.435 855.133 104.317 851.811 104.317C846.75 104.317 841.609 104.435 836.389 104.673C831.169 104.91 826.661 105.226 822.865 105.622C819.622 105.938 817.17 106.61 815.509 107.638C813.928 108.587 812.623 110.287 811.594 112.739C810.566 115.032 809.499 117.8 808.391 121.042C807.284 124.284 806.177 127.685 805.069 131.243C803.962 134.802 802.855 138.281 801.748 141.682C800.087 145.477 798.07 148.364 795.697 150.341C793.404 152.239 790.201 153.188 786.088 153.188C782.924 153.188 780.275 152.674 778.139 151.646C776.004 150.618 774.422 148.917 773.394 146.545C772.366 144.173 771.852 141.049 771.852 137.174C771.852 133.537 772.366 129.187 773.394 124.126C774.422 118.986 775.806 113.45 777.546 107.52C779.365 101.589 781.343 95.5786 783.478 89.4895C785.693 83.4004 787.907 77.5485 790.122 71.9339C792.415 66.2402 794.59 61.1396 796.646 56.6321C798.703 52.0455 800.482 48.4079 801.985 45.7192C804.674 40.7372 807.719 35.9529 811.12 31.3664C814.6 26.7798 818.436 22.7072 822.627 19.1486C826.898 15.511 831.565 12.6642 836.626 10.6081C841.688 8.47296 847.264 7.40539 853.354 7.40539C863.161 7.40539 871.979 10.3709 879.809 16.3018C887.718 22.2327 894.718 30.1011 900.808 39.9069C903.101 43.2282 905.395 47.538 907.688 52.8363C910.061 58.0555 912.394 63.8679 914.688 70.2733C916.981 76.5996 919.117 83.1632 921.094 89.964C923.071 96.7648 924.811 103.447 926.314 110.011C927.896 116.574 929.082 122.624 929.873 128.159C930.743 133.695 931.178 138.36 931.178 142.156C931.178 147.059 929.833 150.499 927.144 152.476C924.455 154.532 920.778 155.56 916.111 155.56ZM881.707 85.4565C883.447 85.1401 884.594 84.468 885.148 83.4399C885.701 82.4119 885.978 80.7908 885.978 78.5766C885.978 76.1251 885.543 73.1201 884.673 69.5616C883.882 65.9239 882.775 62.1281 881.351 58.1742C879.928 54.1411 878.267 50.3849 876.369 46.9054C873.68 41.7653 870.516 37.495 866.878 34.0946C863.24 30.6151 859.325 28.8754 855.133 28.8754C850.546 28.8754 846.157 30.6942 841.965 34.3318C837.852 37.8904 834.214 42.4374 831.05 47.973C829.706 50.1872 828.322 52.7177 826.898 55.5646C825.475 58.4114 824.17 61.3373 822.983 64.3423C821.797 67.3473 820.808 70.1942 820.017 72.8829C819.306 75.4925 818.95 77.7067 818.95 79.5255C818.95 81.8979 819.899 83.5586 821.797 84.5075C823.695 85.3774 826.74 85.8123 830.932 85.8123C839.79 85.8123 847.462 85.8123 853.947 85.8123C860.432 85.8123 865.929 85.8123 870.437 85.8123C875.024 85.8123 878.781 85.6937 881.707 85.4565Z"/>
<path d="M980.026 153.306C973.936 153.306 968.953 152.397 965.078 150.578C961.281 148.68 958.316 145.833 956.18 142.038C954.045 138.242 952.463 133.497 951.435 127.803C950.328 122.11 949.537 115.467 949.062 107.875C948.667 100.205 948.469 91.6642 948.469 82.2538C948.469 72.8433 948.706 63.9865 949.181 55.6832C949.655 47.3799 950.565 40.0651 951.909 33.7387C953.807 25.1982 956.932 18.516 961.282 13.6922C965.711 8.78929 972.275 6.33783 980.975 6.33783C993.471 6.33783 1005.22 7.84033 1016.21 10.8453C1027.28 13.8503 1037.33 17.9229 1046.34 23.0631C1055.36 28.1241 1063.11 33.8969 1069.59 40.3814C1076.16 46.7868 1081.18 53.469 1084.66 60.4279C1088.22 67.3078 1090 73.99 1090 80.4745C1090 88.1451 1088.22 95.5786 1084.66 102.775C1081.18 109.971 1076.2 116.653 1069.71 122.821C1063.23 128.91 1055.44 134.248 1046.34 138.835C1037.33 143.342 1027.2 146.901 1015.97 149.51C1004.82 152.041 992.838 153.306 980.026 153.306ZM992.601 124.956C1001.3 124.956 1009.13 124.008 1016.09 122.11C1023.13 120.212 1029.3 117.681 1034.6 114.518C1039.9 111.355 1044.33 107.757 1047.88 103.724C1051.52 99.6907 1054.25 95.4995 1056.07 91.1501C1057.89 86.7217 1058.8 82.4514 1058.8 78.3393C1058.8 74.7017 1057.73 70.8664 1055.6 66.8333C1053.46 62.7212 1050.34 58.7277 1046.22 54.8529C1042.19 50.8989 1037.33 47.3403 1031.63 44.1772C1025.94 41.014 1019.49 38.4835 1012.29 36.5856C1005.18 34.6086 997.465 33.6201 989.161 33.6201C986.788 33.6201 984.89 34.6481 983.466 36.7042C982.042 38.6812 980.975 41.4489 980.263 45.0075C979.551 48.1707 978.998 51.8478 978.602 56.039C978.286 60.1511 978.128 64.5005 978.128 69.0871C978.128 79.3674 978.286 88.1847 978.602 95.539C978.998 102.814 979.749 108.706 980.856 113.213C982.833 121.042 986.748 124.956 992.601 124.956Z"/>
</mask>
<path d="M77.2484 159C66.4131 159 56.5665 157.497 47.7084 154.492C38.8504 151.567 31.2182 147.257 24.812 141.563C18.4848 135.869 13.5812 128.91 10.1013 120.686C6.70043 112.462 5 103.091 5 92.5736C5 80.3163 6.85861 69.1662 10.5758 59.1231C14.293 49.001 19.6711 40.3023 26.7101 33.027C33.8282 25.6727 42.4094 20.058 52.4538 16.1832C62.5773 12.2292 74.0058 10.2522 86.7392 10.2522C92.75 10.2522 98.4049 10.8849 103.704 12.1501C109.003 13.3363 113.669 15.0365 117.703 17.2507C121.736 19.3859 124.86 21.9559 127.075 24.9609C129.369 27.8869 130.515 31.05 130.515 34.4504C130.515 39.1952 129.329 42.7933 126.956 45.2447C124.663 47.6962 121.578 48.9219 117.703 48.9219C115.33 48.9219 113.195 48.6056 111.297 47.973C109.398 47.3403 107.342 46.6286 105.128 45.8378C102.992 45.047 100.461 44.3353 97.5349 43.7027C94.6086 43.0701 90.931 42.7537 86.5019 42.7537C82.4684 42.7537 78.6325 43.6632 74.9944 45.482C71.3563 47.2217 68.074 49.8313 65.1477 53.3108C62.3005 56.7903 60.0464 61.0606 58.3855 66.1216C56.7247 71.1827 55.8942 76.995 55.8942 83.5586C55.8942 88.6987 56.4478 93.5621 57.5551 98.1486C58.7415 102.656 60.5605 106.65 63.0123 110.129C65.5432 113.609 68.7858 116.376 72.7403 118.432C76.7739 120.409 81.6379 121.398 87.3324 121.398C91.2078 121.398 94.6877 120.884 97.7722 119.856C100.936 118.749 103.783 117.483 106.314 116.06C108.924 114.637 111.376 113.371 113.669 112.264C116.042 111.157 118.454 110.604 120.906 110.604C127.233 110.604 131.544 112.067 133.837 114.992C136.21 117.918 137.396 121.833 137.396 126.736C137.396 131.639 135.854 136.067 132.769 140.021C129.685 143.975 125.375 147.375 119.838 150.222C114.381 152.99 108.014 155.125 100.738 156.628C93.4618 158.209 85.6319 159 77.2484 159Z" fill="#503850"/>
<path d="M226.739 155.441C208.628 155.441 193.68 150.815 181.895 141.563C170.19 132.232 161.727 119.816 156.507 104.317C155.558 101.549 154.728 98.6627 154.016 95.6577C153.304 92.6526 152.711 89.6081 152.237 86.524C151.762 83.3609 151.327 80.1582 150.932 76.9159C150.615 73.5946 150.378 70.2337 150.22 66.8333C150.062 63.4329 149.983 59.9534 149.983 56.3949C149.983 46.0355 150.892 37.5345 152.711 30.8919C154.53 24.2492 157.496 19.3463 161.609 16.1832C165.8 12.9409 171.337 11.3198 178.218 11.3198C182.884 11.3198 186.72 12.506 189.725 14.8784C192.73 17.2507 194.945 21.2047 196.369 26.7402C197.871 32.2758 198.623 39.8278 198.623 49.3964C198.623 52.2432 198.662 55.0901 198.741 57.9369C198.82 60.7838 198.939 63.5515 199.097 66.2402C199.334 68.9289 199.572 71.5385 199.809 74.0691C200.125 76.5996 200.521 79.051 200.995 81.4234C201.47 83.7167 202.024 85.9309 202.656 88.0661C204.475 94.4715 207.283 99.6512 211.079 103.605C214.955 107.48 220.175 109.417 226.739 109.417C231.01 109.417 234.767 108.548 238.009 106.808C241.252 104.989 244.02 102.498 246.314 99.3348C248.686 96.0926 250.624 92.3759 252.127 88.1847C253.076 85.496 253.906 82.6491 254.618 79.6441C255.33 76.5601 255.884 73.3969 256.279 70.1547C256.675 66.8333 256.951 63.4725 257.11 60.0721C257.347 56.6717 257.465 53.2713 257.465 49.8709C257.465 40.6186 258.335 33.2643 260.075 27.8078C261.815 22.2723 264.465 18.3183 268.024 15.9459C271.583 13.4945 275.972 12.2688 281.192 12.2688C287.124 12.2688 291.672 13.8108 294.835 16.8949C297.999 19.8999 300.134 24.6446 301.242 31.1291C302.428 37.5345 303.021 45.8378 303.021 56.039C303.021 59.6767 302.902 63.2352 302.665 66.7147C302.507 70.1151 302.23 73.5155 301.835 76.9159C301.518 80.2372 301.044 83.519 300.411 86.7613C299.857 89.9244 299.185 93.048 298.394 96.1321C297.603 99.1371 296.694 102.063 295.666 104.91C292.028 115.19 287.005 124.126 280.599 131.718C274.193 139.23 266.482 145.082 257.465 149.273C248.528 153.385 238.286 155.441 226.739 155.441Z" fill="#503850"/>
<path d="M359.228 153.425C355.352 153.425 351.754 152.555 348.432 150.815C345.11 149.076 342.065 146.505 339.297 143.105C336.608 139.626 334.236 135.395 332.179 130.413C331.467 128.12 330.756 125.431 330.044 122.347C329.411 119.184 328.778 115.744 328.146 112.027C327.592 108.31 327.078 104.515 326.603 100.64C326.129 96.6857 325.733 92.7713 325.417 88.8964C325.101 84.9424 324.824 81.1862 324.587 77.6276C324.428 74.0691 324.349 70.8268 324.349 67.9009C324.349 53.1131 326.406 41.4094 330.518 32.7898C334.631 24.0911 341.195 17.9229 350.212 14.2853C359.307 10.5686 371.17 8.7102 385.802 8.7102C396.084 8.7102 405.891 9.61961 415.223 11.4384C424.556 13.2572 432.86 16.1832 440.137 20.2162C447.413 24.1702 453.147 29.3498 457.339 35.7553C461.53 42.0816 463.626 49.7918 463.626 58.8859C463.626 65.7658 462.282 71.8153 459.593 77.0345C456.904 82.1747 453.107 86.524 448.204 90.0826C443.379 93.5621 437.606 96.2507 430.883 98.1486C424.161 100.047 416.845 101.154 408.936 101.47C403.716 101.707 398.852 101.589 394.344 101.114C389.915 100.561 385.723 100.284 381.768 100.284C379.317 100.284 377.774 101.193 377.142 103.012C376.588 104.752 376.311 107.124 376.311 110.129C376.311 111.394 376.311 112.818 376.311 114.399C376.39 115.981 376.469 117.681 376.549 119.5C376.628 121.24 376.707 122.979 376.786 124.719C376.944 126.459 377.023 128.12 377.023 129.701C377.102 131.204 377.142 132.548 377.142 133.734C377.142 140.219 375.679 145.122 372.752 148.443C369.905 151.764 365.397 153.425 359.228 153.425ZM382.599 76.6787C386.395 76.6787 390.192 76.481 393.988 76.0856C397.784 75.6111 401.383 74.9389 404.784 74.0691C408.184 73.1201 411.19 71.8944 413.8 70.3919C416.41 68.8103 418.466 66.9124 419.969 64.6982C421.471 62.484 422.223 59.9139 422.223 56.988C422.223 53.7457 421.511 50.978 420.087 48.6847C418.743 46.3914 416.963 44.4935 414.749 42.991C412.534 41.4094 410.122 40.1837 407.512 39.3138C404.902 38.3649 402.292 37.6927 399.682 37.2973C397.151 36.9019 394.897 36.7042 392.92 36.7042C389.361 36.7042 386.237 36.981 383.548 37.5345C380.938 38.0881 378.724 38.958 376.904 40.1441C375.164 41.3303 373.859 42.8724 372.99 44.7703C372.199 46.6682 371.803 48.9615 371.803 51.6501C371.803 54.9715 371.922 57.9765 372.159 60.6652C372.396 63.3539 372.752 65.7262 373.227 67.7823C373.78 69.7593 374.453 71.4199 375.244 72.7643C376.114 74.0295 377.142 75.018 378.328 75.7297C379.594 76.3624 381.017 76.6787 382.599 76.6787Z" fill="#503850"/>
<path d="M596.957 153.425C593.556 153.425 591.025 152.713 589.364 151.29C587.782 149.866 586.754 147.494 586.28 144.173C586.121 141.326 586.003 138.36 585.924 135.276C585.924 132.113 585.924 128.95 585.924 125.787C585.924 122.545 585.924 119.421 585.924 116.416C585.924 113.411 585.924 110.604 585.924 107.994C586.003 105.384 586.003 103.17 585.924 101.351C585.924 97.2392 585.528 94.3529 584.737 92.6922C584.026 90.9524 582.918 89.7267 581.416 89.015C579.676 88.2242 576.393 87.552 571.569 86.9985C566.824 86.4449 559.191 86.1682 548.672 86.1682C542.741 86.1682 537.916 86.2077 534.199 86.2868C530.561 86.3659 527.635 86.524 525.42 86.7613C523.285 86.9194 521.584 87.1566 520.319 87.473C519.132 87.7102 518.025 88.0661 516.997 88.5405C515.89 89.015 514.822 89.8058 513.794 90.9129C512.766 91.9409 512.133 93.6807 511.896 96.1321C511.658 97.3183 511.461 98.7417 511.303 100.402C511.223 102.063 511.105 103.961 510.947 106.096C510.788 108.231 510.67 110.643 510.591 113.332C510.512 115.941 510.393 118.907 510.235 122.228C510.156 125.47 510.077 129.108 509.998 133.141C509.602 138.439 508.851 142.472 507.743 145.24C506.636 148.008 505.134 149.866 503.235 150.815C501.337 151.843 498.925 152.357 495.999 152.357C491.649 152.357 488.367 150.42 486.152 146.545C484.017 142.591 482.395 137.649 481.288 131.718C480.893 128.634 480.497 124.877 480.102 120.449C479.785 116.021 479.548 111.394 479.39 106.571C479.232 101.668 479.073 96.8834 478.915 92.2177C478.836 87.552 478.797 83.4399 478.797 79.8814C478.797 74.4249 478.836 69.2848 478.915 64.461C479.073 59.6371 479.311 55.0901 479.627 50.8198C479.943 46.4705 480.26 42.4374 480.576 38.7207C480.972 35.004 481.446 31.6036 482 28.5195C482.949 23.0631 484.175 18.516 485.678 14.8784C487.18 11.2407 489.039 8.51251 491.253 6.69369C493.547 4.87487 496.275 3.96546 499.439 3.96546C503.077 3.96546 505.766 5.27027 507.506 7.87988C509.325 10.4104 510.551 14.9179 511.184 21.4024C511.342 23.6957 511.5 26.0285 511.658 28.4009C511.817 30.6942 511.975 32.9479 512.133 35.1622C512.291 37.3764 512.449 39.4324 512.608 41.3303C512.766 43.1491 512.924 44.7703 513.082 46.1937C513.24 47.6171 513.359 48.7638 513.438 49.6336C513.913 52.4805 514.506 54.7738 515.217 56.5135C516.008 58.1742 517.472 59.2417 519.607 59.7162C522.375 60.2698 526.448 60.6256 531.826 60.7838C537.204 60.8629 542.938 60.9024 549.028 60.9024C554.011 60.9024 558.677 60.9815 563.027 61.1396C567.377 61.2187 571.173 61.2187 574.416 61.1396C577.659 61.0606 579.952 60.8233 581.297 60.4279C582.721 59.8744 583.867 58.8859 584.737 57.4625C585.607 55.96 586.201 53.4294 586.517 49.8709C586.675 48.2102 586.833 46.2332 586.991 43.9399C587.15 41.6466 587.308 39.037 587.466 36.1111C587.703 33.1852 587.94 30.1406 588.178 26.9775C588.415 23.7352 588.731 20.4534 589.127 17.1321C589.839 11.2012 591.144 7.04954 593.042 4.67717C594.94 2.22572 597.313 1 600.16 1C604.193 1 607.238 2.5025 609.295 5.50751C611.43 8.43343 613.051 13.3759 614.159 20.3348C614.712 22.3909 615.147 25.1982 615.464 28.7568C615.859 32.3153 616.175 36.4274 616.413 41.0931C616.729 45.6797 616.927 50.6221 617.006 55.9204C617.164 61.1396 617.243 66.4379 617.243 71.8153C617.243 76.2437 617.164 80.8699 617.006 85.6937C616.848 90.4384 616.61 95.2227 616.294 100.047C616.057 104.791 615.74 109.417 615.345 113.925C614.95 118.353 614.515 122.465 614.04 126.261C613.645 130.057 613.21 133.378 612.735 136.225C611.47 142.314 609.492 146.703 606.803 149.392C604.193 152.081 600.911 153.425 596.957 153.425Z" fill="#503850"/>
<path d="M689.434 158.17C679.39 158.17 670.927 156.351 664.046 152.713C657.166 149.076 651.827 143.58 648.031 136.225C644.313 128.871 641.862 119.579 640.675 108.35C640.359 105.661 640.122 102.893 639.964 100.047C639.805 97.1206 639.647 94.1156 639.489 91.0315C639.41 87.8684 639.37 84.6261 639.37 81.3048C639.37 77.9835 639.37 74.5831 639.37 71.1036C639.37 57.5811 640.675 46.4309 643.285 37.6531C645.895 28.7963 649.968 21.8769 655.505 16.8949C661.12 11.9129 668.278 8.39389 676.978 6.33783C685.756 4.28177 696.196 3.25375 708.297 3.25375C714.229 3.25375 719.884 3.53052 725.262 4.08407C730.719 4.55855 735.543 5.3098 739.735 6.33783C743.927 7.36586 747.209 8.67067 749.582 10.2522C752.034 11.7548 753.26 13.5736 753.26 15.7087C753.26 17.9229 752.587 19.7022 751.243 21.0465C749.977 22.3118 748.316 23.1421 746.26 23.5375C743.808 23.8539 740.566 23.9329 736.532 23.7748C732.498 23.5375 728.069 23.3003 723.245 23.0631C718.421 22.8258 713.517 22.7072 708.534 22.7072C701.416 22.7072 695.445 23.2608 690.621 24.3679C685.796 25.3959 681.921 27.1356 678.994 29.5871C676.068 32.0385 673.972 35.3599 672.707 39.551C671.441 43.7422 670.809 48.9219 670.809 55.0901C670.809 58.2533 671.204 60.6652 671.995 62.3258C672.865 63.9074 674.842 64.975 677.927 65.5285C681.011 66.003 685.954 66.2402 692.756 66.2402C694.417 66.2402 696.473 66.2402 698.925 66.2402C701.377 66.1612 703.908 66.0821 706.518 66.003C709.207 65.9239 711.698 65.8844 713.991 65.8844C716.364 65.8844 718.223 65.8844 719.567 65.8844C725.499 65.8844 729.612 66.6356 731.905 68.1381C734.199 69.6406 735.346 71.8549 735.346 74.7808C735.346 78.972 733.962 81.8584 731.194 83.4399C728.505 84.9424 724.906 85.6937 720.398 85.6937C718.421 85.6937 716.246 85.6937 713.873 85.6937C711.5 85.6937 709.009 85.7332 706.399 85.8123C703.868 85.8123 701.416 85.8123 699.044 85.8123C696.671 85.8123 694.535 85.8123 692.637 85.8123C685.598 85.8123 680.378 86.0495 676.978 86.524C673.577 86.9194 671.362 87.8684 670.334 89.3709C669.385 90.7943 668.91 93.0876 668.91 96.2507C668.91 101.47 669.148 106.175 669.622 110.366C670.097 114.478 670.927 118.077 672.114 121.161C673.3 124.166 674.961 126.657 677.096 128.634C679.311 130.611 682.118 132.113 685.519 133.141C688.92 134.09 693.033 134.565 697.857 134.565C703.868 134.565 709.76 134.367 715.534 133.971C721.307 133.576 726.527 133.22 731.194 132.904C735.86 132.508 739.498 132.311 742.108 132.311C745.667 132.311 748.277 133.062 749.938 134.565C751.599 135.988 752.429 138.123 752.429 140.97C752.429 144.133 750.452 146.822 746.497 149.036C742.622 151.25 737.521 153.03 731.194 154.374C724.945 155.718 718.144 156.667 710.788 157.221C703.433 157.853 696.315 158.17 689.434 158.17Z" fill="#503850"/>
<path d="M916.111 155.56C912.869 155.56 910.061 154.73 907.688 153.069C905.395 151.487 903.338 149.076 901.519 145.833C900.808 143.698 900.017 141.207 899.147 138.36C898.277 135.434 897.407 132.469 896.537 129.464C895.746 126.459 894.915 123.612 894.045 120.923C893.175 118.156 892.305 115.862 891.435 114.044C890.328 111.513 888.944 109.655 887.283 108.468C885.701 107.282 883.329 106.452 880.165 105.977C878.583 105.819 876.171 105.622 872.928 105.384C869.765 105.068 866.285 104.831 862.489 104.673C858.692 104.435 855.133 104.317 851.811 104.317C846.75 104.317 841.609 104.435 836.389 104.673C831.169 104.91 826.661 105.226 822.865 105.622C819.622 105.938 817.17 106.61 815.509 107.638C813.928 108.587 812.623 110.287 811.594 112.739C810.566 115.032 809.499 117.8 808.391 121.042C807.284 124.284 806.177 127.685 805.069 131.243C803.962 134.802 802.855 138.281 801.748 141.682C800.087 145.477 798.07 148.364 795.697 150.341C793.404 152.239 790.201 153.188 786.088 153.188C782.924 153.188 780.275 152.674 778.139 151.646C776.004 150.618 774.422 148.917 773.394 146.545C772.366 144.173 771.852 141.049 771.852 137.174C771.852 133.537 772.366 129.187 773.394 124.126C774.422 118.986 775.806 113.45 777.546 107.52C779.365 101.589 781.343 95.5786 783.478 89.4895C785.693 83.4004 787.907 77.5485 790.122 71.9339C792.415 66.2402 794.59 61.1396 796.646 56.6321C798.703 52.0455 800.482 48.4079 801.985 45.7192C804.674 40.7372 807.719 35.9529 811.12 31.3664C814.6 26.7798 818.436 22.7072 822.627 19.1486C826.898 15.511 831.565 12.6642 836.626 10.6081C841.688 8.47296 847.264 7.40539 853.354 7.40539C863.161 7.40539 871.979 10.3709 879.809 16.3018C887.718 22.2327 894.718 30.1011 900.808 39.9069C903.101 43.2282 905.395 47.538 907.688 52.8363C910.061 58.0555 912.394 63.8679 914.688 70.2733C916.981 76.5996 919.117 83.1632 921.094 89.964C923.071 96.7648 924.811 103.447 926.314 110.011C927.896 116.574 929.082 122.624 929.873 128.159C930.743 133.695 931.178 138.36 931.178 142.156C931.178 147.059 929.833 150.499 927.144 152.476C924.455 154.532 920.778 155.56 916.111 155.56ZM881.707 85.4565C883.447 85.1401 884.594 84.468 885.148 83.4399C885.701 82.4119 885.978 80.7908 885.978 78.5766C885.978 76.1251 885.543 73.1201 884.673 69.5616C883.882 65.9239 882.775 62.1281 881.351 58.1742C879.928 54.1411 878.267 50.3849 876.369 46.9054C873.68 41.7653 870.516 37.495 866.878 34.0946C863.24 30.6151 859.325 28.8754 855.133 28.8754C850.546 28.8754 846.157 30.6942 841.965 34.3318C837.852 37.8904 834.214 42.4374 831.05 47.973C829.706 50.1872 828.322 52.7177 826.898 55.5646C825.475 58.4114 824.17 61.3373 822.983 64.3423C821.797 67.3473 820.808 70.1942 820.017 72.8829C819.306 75.4925 818.95 77.7067 818.95 79.5255C818.95 81.8979 819.899 83.5586 821.797 84.5075C823.695 85.3774 826.74 85.8123 830.932 85.8123C839.79 85.8123 847.462 85.8123 853.947 85.8123C860.432 85.8123 865.929 85.8123 870.437 85.8123C875.024 85.8123 878.781 85.6937 881.707 85.4565Z" fill="#503850"/>
<path d="M980.026 153.306C973.936 153.306 968.953 152.397 965.078 150.578C961.281 148.68 958.316 145.833 956.18 142.038C954.045 138.242 952.463 133.497 951.435 127.803C950.328 122.11 949.537 115.467 949.062 107.875C948.667 100.205 948.469 91.6642 948.469 82.2538C948.469 72.8433 948.706 63.9865 949.181 55.6832C949.655 47.3799 950.565 40.0651 951.909 33.7387C953.807 25.1982 956.932 18.516 961.282 13.6922C965.711 8.78929 972.275 6.33783 980.975 6.33783C993.471 6.33783 1005.22 7.84033 1016.21 10.8453C1027.28 13.8503 1037.33 17.9229 1046.34 23.0631C1055.36 28.1241 1063.11 33.8969 1069.59 40.3814C1076.16 46.7868 1081.18 53.469 1084.66 60.4279C1088.22 67.3078 1090 73.99 1090 80.4745C1090 88.1451 1088.22 95.5786 1084.66 102.775C1081.18 109.971 1076.2 116.653 1069.71 122.821C1063.23 128.91 1055.44 134.248 1046.34 138.835C1037.33 143.342 1027.2 146.901 1015.97 149.51C1004.82 152.041 992.838 153.306 980.026 153.306ZM992.601 124.956C1001.3 124.956 1009.13 124.008 1016.09 122.11C1023.13 120.212 1029.3 117.681 1034.6 114.518C1039.9 111.355 1044.33 107.757 1047.88 103.724C1051.52 99.6907 1054.25 95.4995 1056.07 91.1501C1057.89 86.7217 1058.8 82.4514 1058.8 78.3393C1058.8 74.7017 1057.73 70.8664 1055.6 66.8333C1053.46 62.7212 1050.34 58.7277 1046.22 54.8529C1042.19 50.8989 1037.33 47.3403 1031.63 44.1772C1025.94 41.014 1019.49 38.4835 1012.29 36.5856C1005.18 34.6086 997.465 33.6201 989.161 33.6201C986.788 33.6201 984.89 34.6481 983.466 36.7042C982.042 38.6812 980.975 41.4489 980.263 45.0075C979.551 48.1707 978.998 51.8478 978.602 56.039C978.286 60.1511 978.128 64.5005 978.128 69.0871C978.128 79.3674 978.286 88.1847 978.602 95.539C978.998 102.814 979.749 108.706 980.856 113.213C982.833 121.042 986.748 124.956 992.601 124.956Z" fill="#503850"/>
<path d="M77.2484 159C66.4131 159 56.5665 157.497 47.7084 154.492C38.8504 151.567 31.2182 147.257 24.812 141.563C18.4848 135.869 13.5812 128.91 10.1013 120.686C6.70043 112.462 5 103.091 5 92.5736C5 80.3163 6.85861 69.1662 10.5758 59.1231C14.293 49.001 19.6711 40.3023 26.7101 33.027C33.8282 25.6727 42.4094 20.058 52.4538 16.1832C62.5773 12.2292 74.0058 10.2522 86.7392 10.2522C92.75 10.2522 98.4049 10.8849 103.704 12.1501C109.003 13.3363 113.669 15.0365 117.703 17.2507C121.736 19.3859 124.86 21.9559 127.075 24.9609C129.369 27.8869 130.515 31.05 130.515 34.4504C130.515 39.1952 129.329 42.7933 126.956 45.2447C124.663 47.6962 121.578 48.9219 117.703 48.9219C115.33 48.9219 113.195 48.6056 111.297 47.973C109.398 47.3403 107.342 46.6286 105.128 45.8378C102.992 45.047 100.461 44.3353 97.5349 43.7027C94.6086 43.0701 90.931 42.7537 86.5019 42.7537C82.4684 42.7537 78.6325 43.6632 74.9944 45.482C71.3563 47.2217 68.074 49.8313 65.1477 53.3108C62.3005 56.7903 60.0464 61.0606 58.3855 66.1216C56.7247 71.1827 55.8942 76.995 55.8942 83.5586C55.8942 88.6987 56.4478 93.5621 57.5551 98.1486C58.7415 102.656 60.5605 106.65 63.0123 110.129C65.5432 113.609 68.7858 116.376 72.7403 118.432C76.7739 120.409 81.6379 121.398 87.3324 121.398C91.2078 121.398 94.6877 120.884 97.7722 119.856C100.936 118.749 103.783 117.483 106.314 116.06C108.924 114.637 111.376 113.371 113.669 112.264C116.042 111.157 118.454 110.604 120.906 110.604C127.233 110.604 131.544 112.067 133.837 114.992C136.21 117.918 137.396 121.833 137.396 126.736C137.396 131.639 135.854 136.067 132.769 140.021C129.685 143.975 125.375 147.375 119.838 150.222C114.381 152.99 108.014 155.125 100.738 156.628C93.4618 158.209 85.6319 159 77.2484 159Z" stroke="#0B0A0A" stroke-width="2" mask="url(#path-1-outside-1_0_1)"/>
<path d="M226.739 155.441C208.628 155.441 193.68 150.815 181.895 141.563C170.19 132.232 161.727 119.816 156.507 104.317C155.558 101.549 154.728 98.6627 154.016 95.6577C153.304 92.6526 152.711 89.6081 152.237 86.524C151.762 83.3609 151.327 80.1582 150.932 76.9159C150.615 73.5946 150.378 70.2337 150.22 66.8333C150.062 63.4329 149.983 59.9534 149.983 56.3949C149.983 46.0355 150.892 37.5345 152.711 30.8919C154.53 24.2492 157.496 19.3463 161.609 16.1832C165.8 12.9409 171.337 11.3198 178.218 11.3198C182.884 11.3198 186.72 12.506 189.725 14.8784C192.73 17.2507 194.945 21.2047 196.369 26.7402C197.871 32.2758 198.623 39.8278 198.623 49.3964C198.623 52.2432 198.662 55.0901 198.741 57.9369C198.82 60.7838 198.939 63.5515 199.097 66.2402C199.334 68.9289 199.572 71.5385 199.809 74.0691C200.125 76.5996 200.521 79.051 200.995 81.4234C201.47 83.7167 202.024 85.9309 202.656 88.0661C204.475 94.4715 207.283 99.6512 211.079 103.605C214.955 107.48 220.175 109.417 226.739 109.417C231.01 109.417 234.767 108.548 238.009 106.808C241.252 104.989 244.02 102.498 246.314 99.3348C248.686 96.0926 250.624 92.3759 252.127 88.1847C253.076 85.496 253.906 82.6491 254.618 79.6441C255.33 76.5601 255.884 73.3969 256.279 70.1547C256.675 66.8333 256.951 63.4725 257.11 60.0721C257.347 56.6717 257.465 53.2713 257.465 49.8709C257.465 40.6186 258.335 33.2643 260.075 27.8078C261.815 22.2723 264.465 18.3183 268.024 15.9459C271.583 13.4945 275.972 12.2688 281.192 12.2688C287.124 12.2688 291.672 13.8108 294.835 16.8949C297.999 19.8999 300.134 24.6446 301.242 31.1291C302.428 37.5345 303.021 45.8378 303.021 56.039C303.021 59.6767 302.902 63.2352 302.665 66.7147C302.507 70.1151 302.23 73.5155 301.835 76.9159C301.518 80.2372 301.044 83.519 300.411 86.7613C299.857 89.9244 299.185 93.048 298.394 96.1321C297.603 99.1371 296.694 102.063 295.666 104.91C292.028 115.19 287.005 124.126 280.599 131.718C274.193 139.23 266.482 145.082 257.465 149.273C248.528 153.385 238.286 155.441 226.739 155.441Z" stroke="#0B0A0A" stroke-width="2" mask="url(#path-1-outside-1_0_1)"/>
<path d="M359.228 153.425C355.352 153.425 351.754 152.555 348.432 150.815C345.11 149.076 342.065 146.505 339.297 143.105C336.608 139.626 334.236 135.395 332.179 130.413C331.467 128.12 330.756 125.431 330.044 122.347C329.411 119.184 328.778 115.744 328.146 112.027C327.592 108.31 327.078 104.515 326.603 100.64C326.129 96.6857 325.733 92.7713 325.417 88.8964C325.101 84.9424 324.824 81.1862 324.587 77.6276C324.428 74.0691 324.349 70.8268 324.349 67.9009C324.349 53.1131 326.406 41.4094 330.518 32.7898C334.631 24.0911 341.195 17.9229 350.212 14.2853C359.307 10.5686 371.17 8.7102 385.802 8.7102C396.084 8.7102 405.891 9.61961 415.223 11.4384C424.556 13.2572 432.86 16.1832 440.137 20.2162C447.413 24.1702 453.147 29.3498 457.339 35.7553C461.53 42.0816 463.626 49.7918 463.626 58.8859C463.626 65.7658 462.282 71.8153 459.593 77.0345C456.904 82.1747 453.107 86.524 448.204 90.0826C443.379 93.5621 437.606 96.2507 430.883 98.1486C424.161 100.047 416.845 101.154 408.936 101.47C403.716 101.707 398.852 101.589 394.344 101.114C389.915 100.561 385.723 100.284 381.768 100.284C379.317 100.284 377.774 101.193 377.142 103.012C376.588 104.752 376.311 107.124 376.311 110.129C376.311 111.394 376.311 112.818 376.311 114.399C376.39 115.981 376.469 117.681 376.549 119.5C376.628 121.24 376.707 122.979 376.786 124.719C376.944 126.459 377.023 128.12 377.023 129.701C377.102 131.204 377.142 132.548 377.142 133.734C377.142 140.219 375.679 145.122 372.752 148.443C369.905 151.764 365.397 153.425 359.228 153.425ZM382.599 76.6787C386.395 76.6787 390.192 76.481 393.988 76.0856C397.784 75.6111 401.383 74.9389 404.784 74.0691C408.184 73.1201 411.19 71.8944 413.8 70.3919C416.41 68.8103 418.466 66.9124 419.969 64.6982C421.471 62.484 422.223 59.9139 422.223 56.988C422.223 53.7457 421.511 50.978 420.087 48.6847C418.743 46.3914 416.963 44.4935 414.749 42.991C412.534 41.4094 410.122 40.1837 407.512 39.3138C404.902 38.3649 402.292 37.6927 399.682 37.2973C397.151 36.9019 394.897 36.7042 392.92 36.7042C389.361 36.7042 386.237 36.981 383.548 37.5345C380.938 38.0881 378.724 38.958 376.904 40.1441C375.164 41.3303 373.859 42.8724 372.99 44.7703C372.199 46.6682 371.803 48.9615 371.803 51.6501C371.803 54.9715 371.922 57.9765 372.159 60.6652C372.396 63.3539 372.752 65.7262 373.227 67.7823C373.78 69.7593 374.453 71.4199 375.244 72.7643C376.114 74.0295 377.142 75.018 378.328 75.7297C379.594 76.3624 381.017 76.6787 382.599 76.6787Z" stroke="#0B0A0A" stroke-width="2" mask="url(#path-1-outside-1_0_1)"/>
<path d="M596.957 153.425C593.556 153.425 591.025 152.713 589.364 151.29C587.782 149.866 586.754 147.494 586.28 144.173C586.121 141.326 586.003 138.36 585.924 135.276C585.924 132.113 585.924 128.95 585.924 125.787C585.924 122.545 585.924 119.421 585.924 116.416C585.924 113.411 585.924 110.604 585.924 107.994C586.003 105.384 586.003 103.17 585.924 101.351C585.924 97.2392 585.528 94.3529 584.737 92.6922C584.026 90.9524 582.918 89.7267 581.416 89.015C579.676 88.2242 576.393 87.552 571.569 86.9985C566.824 86.4449 559.191 86.1682 548.672 86.1682C542.741 86.1682 537.916 86.2077 534.199 86.2868C530.561 86.3659 527.635 86.524 525.42 86.7613C523.285 86.9194 521.584 87.1566 520.319 87.473C519.132 87.7102 518.025 88.0661 516.997 88.5405C515.89 89.015 514.822 89.8058 513.794 90.9129C512.766 91.9409 512.133 93.6807 511.896 96.1321C511.658 97.3183 511.461 98.7417 511.303 100.402C511.223 102.063 511.105 103.961 510.947 106.096C510.788 108.231 510.67 110.643 510.591 113.332C510.512 115.941 510.393 118.907 510.235 122.228C510.156 125.47 510.077 129.108 509.998 133.141C509.602 138.439 508.851 142.472 507.743 145.24C506.636 148.008 505.134 149.866 503.235 150.815C501.337 151.843 498.925 152.357 495.999 152.357C491.649 152.357 488.367 150.42 486.152 146.545C484.017 142.591 482.395 137.649 481.288 131.718C480.893 128.634 480.497 124.877 480.102 120.449C479.785 116.021 479.548 111.394 479.39 106.571C479.232 101.668 479.073 96.8834 478.915 92.2177C478.836 87.552 478.797 83.4399 478.797 79.8814C478.797 74.4249 478.836 69.2848 478.915 64.461C479.073 59.6371 479.311 55.0901 479.627 50.8198C479.943 46.4705 480.26 42.4374 480.576 38.7207C480.972 35.004 481.446 31.6036 482 28.5195C482.949 23.0631 484.175 18.516 485.678 14.8784C487.18 11.2407 489.039 8.51251 491.253 6.69369C493.547 4.87487 496.275 3.96546 499.439 3.96546C503.077 3.96546 505.766 5.27027 507.506 7.87988C509.325 10.4104 510.551 14.9179 511.184 21.4024C511.342 23.6957 511.5 26.0285 511.658 28.4009C511.817 30.6942 511.975 32.9479 512.133 35.1622C512.291 37.3764 512.449 39.4324 512.608 41.3303C512.766 43.1491 512.924 44.7703 513.082 46.1937C513.24 47.6171 513.359 48.7638 513.438 49.6336C513.913 52.4805 514.506 54.7738 515.217 56.5135C516.008 58.1742 517.472 59.2417 519.607 59.7162C522.375 60.2698 526.448 60.6256 531.826 60.7838C537.204 60.8629 542.938 60.9024 549.028 60.9024C554.011 60.9024 558.677 60.9815 563.027 61.1396C567.377 61.2187 571.173 61.2187 574.416 61.1396C577.659 61.0606 579.952 60.8233 581.297 60.4279C582.721 59.8744 583.867 58.8859 584.737 57.4625C585.607 55.96 586.201 53.4294 586.517 49.8709C586.675 48.2102 586.833 46.2332 586.991 43.9399C587.15 41.6466 587.308 39.037 587.466 36.1111C587.703 33.1852 587.94 30.1406 588.178 26.9775C588.415 23.7352 588.731 20.4534 589.127 17.1321C589.839 11.2012 591.144 7.04954 593.042 4.67717C594.94 2.22572 597.313 1 600.16 1C604.193 1 607.238 2.5025 609.295 5.50751C611.43 8.43343 613.051 13.3759 614.159 20.3348C614.712 22.3909 615.147 25.1982 615.464 28.7568C615.859 32.3153 616.175 36.4274 616.413 41.0931C616.729 45.6797 616.927 50.6221 617.006 55.9204C617.164 61.1396 617.243 66.4379 617.243 71.8153C617.243 76.2437 617.164 80.8699 617.006 85.6937C616.848 90.4384 616.61 95.2227 616.294 100.047C616.057 104.791 615.74 109.417 615.345 113.925C614.95 118.353 614.515 122.465 614.04 126.261C613.645 130.057 613.21 133.378 612.735 136.225C611.47 142.314 609.492 146.703 606.803 149.392C604.193 152.081 600.911 153.425 596.957 153.425Z" stroke="#0B0A0A" stroke-width="2" mask="url(#path-1-outside-1_0_1)"/>
<path d="M689.434 158.17C679.39 158.17 670.927 156.351 664.046 152.713C657.166 149.076 651.827 143.58 648.031 136.225C644.313 128.871 641.862 119.579 640.675 108.35C640.359 105.661 640.122 102.893 639.964 100.047C639.805 97.1206 639.647 94.1156 639.489 91.0315C639.41 87.8684 639.37 84.6261 639.37 81.3048C639.37 77.9835 639.37 74.5831 639.37 71.1036C639.37 57.5811 640.675 46.4309 643.285 37.6531C645.895 28.7963 649.968 21.8769 655.505 16.8949C661.12 11.9129 668.278 8.39389 676.978 6.33783C685.756 4.28177 696.196 3.25375 708.297 3.25375C714.229 3.25375 719.884 3.53052 725.262 4.08407C730.719 4.55855 735.543 5.3098 739.735 6.33783C743.927 7.36586 747.209 8.67067 749.582 10.2522C752.034 11.7548 753.26 13.5736 753.26 15.7087C753.26 17.9229 752.587 19.7022 751.243 21.0465C749.977 22.3118 748.316 23.1421 746.26 23.5375C743.808 23.8539 740.566 23.9329 736.532 23.7748C732.498 23.5375 728.069 23.3003 723.245 23.0631C718.421 22.8258 713.517 22.7072 708.534 22.7072C701.416 22.7072 695.445 23.2608 690.621 24.3679C685.796 25.3959 681.921 27.1356 678.994 29.5871C676.068 32.0385 673.972 35.3599 672.707 39.551C671.441 43.7422 670.809 48.9219 670.809 55.0901C670.809 58.2533 671.204 60.6652 671.995 62.3258C672.865 63.9074 674.842 64.975 677.927 65.5285C681.011 66.003 685.954 66.2402 692.756 66.2402C694.417 66.2402 696.473 66.2402 698.925 66.2402C701.377 66.1612 703.908 66.0821 706.518 66.003C709.207 65.9239 711.698 65.8844 713.991 65.8844C716.364 65.8844 718.223 65.8844 719.567 65.8844C725.499 65.8844 729.612 66.6356 731.905 68.1381C734.199 69.6406 735.346 71.8549 735.346 74.7808C735.346 78.972 733.962 81.8584 731.194 83.4399C728.505 84.9424 724.906 85.6937 720.398 85.6937C718.421 85.6937 716.246 85.6937 713.873 85.6937C711.5 85.6937 709.009 85.7332 706.399 85.8123C703.868 85.8123 701.416 85.8123 699.044 85.8123C696.671 85.8123 694.535 85.8123 692.637 85.8123C685.598 85.8123 680.378 86.0495 676.978 86.524C673.577 86.9194 671.362 87.8684 670.334 89.3709C669.385 90.7943 668.91 93.0876 668.91 96.2507C668.91 101.47 669.148 106.175 669.622 110.366C670.097 114.478 670.927 118.077 672.114 121.161C673.3 124.166 674.961 126.657 677.096 128.634C679.311 130.611 682.118 132.113 685.519 133.141C688.92 134.09 693.033 134.565 697.857 134.565C703.868 134.565 709.76 134.367 715.534 133.971C721.307 133.576 726.527 133.22 731.194 132.904C735.86 132.508 739.498 132.311 742.108 132.311C745.667 132.311 748.277 133.062 749.938 134.565C751.599 135.988 752.429 138.123 752.429 140.97C752.429 144.133 750.452 146.822 746.497 149.036C742.622 151.25 737.521 153.03 731.194 154.374C724.945 155.718 718.144 156.667 710.788 157.221C703.433 157.853 696.315 158.17 689.434 158.17Z" stroke="#0B0A0A" stroke-width="2" mask="url(#path-1-outside-1_0_1)"/>
<path d="M916.111 155.56C912.869 155.56 910.061 154.73 907.688 153.069C905.395 151.487 903.338 149.076 901.519 145.833C900.808 143.698 900.017 141.207 899.147 138.36C898.277 135.434 897.407 132.469 896.537 129.464C895.746 126.459 894.915 123.612 894.045 120.923C893.175 118.156 892.305 115.862 891.435 114.044C890.328 111.513 888.944 109.655 887.283 108.468C885.701 107.282 883.329 106.452 880.165 105.977C878.583 105.819 876.171 105.622 872.928 105.384C869.765 105.068 866.285 104.831 862.489 104.673C858.692 104.435 855.133 104.317 851.811 104.317C846.75 104.317 841.609 104.435 836.389 104.673C831.169 104.91 826.661 105.226 822.865 105.622C819.622 105.938 817.17 106.61 815.509 107.638C813.928 108.587 812.623 110.287 811.594 112.739C810.566 115.032 809.499 117.8 808.391 121.042C807.284 124.284 806.177 127.685 805.069 131.243C803.962 134.802 802.855 138.281 801.748 141.682C800.087 145.477 798.07 148.364 795.697 150.341C793.404 152.239 790.201 153.188 786.088 153.188C782.924 153.188 780.275 152.674 778.139 151.646C776.004 150.618 774.422 148.917 773.394 146.545C772.366 144.173 771.852 141.049 771.852 137.174C771.852 133.537 772.366 129.187 773.394 124.126C774.422 118.986 775.806 113.45 777.546 107.52C779.365 101.589 781.343 95.5786 783.478 89.4895C785.693 83.4004 787.907 77.5485 790.122 71.9339C792.415 66.2402 794.59 61.1396 796.646 56.6321C798.703 52.0455 800.482 48.4079 801.985 45.7192C804.674 40.7372 807.719 35.9529 811.12 31.3664C814.6 26.7798 818.436 22.7072 822.627 19.1486C826.898 15.511 831.565 12.6642 836.626 10.6081C841.688 8.47296 847.264 7.40539 853.354 7.40539C863.161 7.40539 871.979 10.3709 879.809 16.3018C887.718 22.2327 894.718 30.1011 900.808 39.9069C903.101 43.2282 905.395 47.538 907.688 52.8363C910.061 58.0555 912.394 63.8679 914.688 70.2733C916.981 76.5996 919.117 83.1632 921.094 89.964C923.071 96.7648 924.811 103.447 926.314 110.011C927.896 116.574 929.082 122.624 929.873 128.159C930.743 133.695 931.178 138.36 931.178 142.156C931.178 147.059 929.833 150.499 927.144 152.476C924.455 154.532 920.778 155.56 916.111 155.56ZM881.707 85.4565C883.447 85.1401 884.594 84.468 885.148 83.4399C885.701 82.4119 885.978 80.7908 885.978 78.5766C885.978 76.1251 885.543 73.1201 884.673 69.5616C883.882 65.9239 882.775 62.1281 881.351 58.1742C879.928 54.1411 878.267 50.3849 876.369 46.9054C873.68 41.7653 870.516 37.495 866.878 34.0946C863.24 30.6151 859.325 28.8754 855.133 28.8754C850.546 28.8754 846.157 30.6942 841.965 34.3318C837.852 37.8904 834.214 42.4374 831.05 47.973C829.706 50.1872 828.322 52.7177 826.898 55.5646C825.475 58.4114 824.17 61.3373 822.983 64.3423C821.797 67.3473 820.808 70.1942 820.017 72.8829C819.306 75.4925 818.95 77.7067 818.95 79.5255C818.95 81.8979 819.899 83.5586 821.797 84.5075C823.695 85.3774 826.74 85.8123 830.932 85.8123C839.79 85.8123 847.462 85.8123 853.947 85.8123C860.432 85.8123 865.929 85.8123 870.437 85.8123C875.024 85.8123 878.781 85.6937 881.707 85.4565Z" stroke="#0B0A0A" stroke-width="2" mask="url(#path-1-outside-1_0_1)"/>
<path d="M980.026 153.306C973.936 153.306 968.953 152.397 965.078 150.578C961.281 148.68 958.316 145.833 956.18 142.038C954.045 138.242 952.463 133.497 951.435 127.803C950.328 122.11 949.537 115.467 949.062 107.875C948.667 100.205 948.469 91.6642 948.469 82.2538C948.469 72.8433 948.706 63.9865 949.181 55.6832C949.655 47.3799 950.565 40.0651 951.909 33.7387C953.807 25.1982 956.932 18.516 961.282 13.6922C965.711 8.78929 972.275 6.33783 980.975 6.33783C993.471 6.33783 1005.22 7.84033 1016.21 10.8453C1027.28 13.8503 1037.33 17.9229 1046.34 23.0631C1055.36 28.1241 1063.11 33.8969 1069.59 40.3814C1076.16 46.7868 1081.18 53.469 1084.66 60.4279C1088.22 67.3078 1090 73.99 1090 80.4745C1090 88.1451 1088.22 95.5786 1084.66 102.775C1081.18 109.971 1076.2 116.653 1069.71 122.821C1063.23 128.91 1055.44 134.248 1046.34 138.835C1037.33 143.342 1027.2 146.901 1015.97 149.51C1004.82 152.041 992.838 153.306 980.026 153.306ZM992.601 124.956C1001.3 124.956 1009.13 124.008 1016.09 122.11C1023.13 120.212 1029.3 117.681 1034.6 114.518C1039.9 111.355 1044.33 107.757 1047.88 103.724C1051.52 99.6907 1054.25 95.4995 1056.07 91.1501C1057.89 86.7217 1058.8 82.4514 1058.8 78.3393C1058.8 74.7017 1057.73 70.8664 1055.6 66.8333C1053.46 62.7212 1050.34 58.7277 1046.22 54.8529C1042.19 50.8989 1037.33 47.3403 1031.63 44.1772C1025.94 41.014 1019.49 38.4835 1012.29 36.5856C1005.18 34.6086 997.465 33.6201 989.161 33.6201C986.788 33.6201 984.89 34.6481 983.466 36.7042C982.042 38.6812 980.975 41.4489 980.263 45.0075C979.551 48.1707 978.998 51.8478 978.602 56.039C978.286 60.1511 978.128 64.5005 978.128 69.0871C978.128 79.3674 978.286 88.1847 978.602 95.539C978.998 102.814 979.749 108.706 980.856 113.213C982.833 121.042 986.748 124.956 992.601 124.956Z" stroke="#0B0A0A" stroke-width="2" mask="url(#path-1-outside-1_0_1)"/>
</g>
<defs>
<filter id="filter0_d_0_1" x="0" y="0" width="1095" height="168" filterUnits="userSpaceOnUse" color-interpolation-filters="sRGB">
<feFlood flood-opacity="0" result="BackgroundImageFix"/>
<feColorMatrix in="SourceAlpha" type="matrix" values="0 0 0 0 0 0 0 0 0 0 0 0 0 0 0 0 0 0 127 0" result="hardAlpha"/>
<feOffset dy="4"/>
<feGaussianBlur stdDeviation="2"/>
<feComposite in2="hardAlpha" operator="out"/>
<feColorMatrix type="matrix" values="0 0 0 0 0 0 0 0 0 0 0 0 0 0 0 0 0 0 0.25 0"/>
<feBlend mode="normal" in2="BackgroundImageFix" result="effect1_dropShadow_0_1"/>
<feBlend mode="normal" in="SourceGraphic" in2="effect1_dropShadow_0_1" result="shape"/>
</filter>
</defs>
</svg>
