<svg width="1224" height="340" viewBox="0 0 1224 340" fill="none" xmlns="http://www.w3.org/2000/svg">
<path d="M116.493 340C92.2685 340 71.3686 334.627 53.7936 323.88C36.4562 313.133 23.1562 298.087 13.8937 278.743C4.63124 259.398 0 236.71 0 210.679C0 182.976 4.98749 158.736 14.9625 137.958C25.1749 116.942 39.3061 100.583 57.3561 88.8808C75.4061 77.1787 96.0685 71.3276 119.343 71.3276C137.868 71.3276 154.731 75.1487 169.931 82.7909C185.368 90.1944 197.837 100.583 207.337 113.957C206.149 118.256 203.062 122.674 198.074 127.211C193.324 131.749 188.575 134.734 183.825 136.167C175.275 124.943 165.537 116.703 154.612 111.449C143.687 106.195 131.931 103.568 119.343 103.568C102.481 103.568 87.6373 107.986 74.8123 116.823C61.9873 125.659 52.0124 137.958 44.8874 153.72C37.7624 169.483 34.1999 187.872 34.1999 208.888C34.1999 228.71 37.4062 246.024 43.8186 260.831C50.4686 275.638 60.0873 287.221 72.6748 295.579C85.4998 303.699 101.056 307.759 119.343 307.759C135.256 307.759 149.031 304.535 160.668 298.087C172.306 291.639 182.875 282.564 192.375 270.862C196.887 272.295 201.518 274.922 206.268 278.743C211.018 282.564 214.343 286.385 216.243 290.206C205.318 306.446 191.187 318.864 173.85 327.462C156.75 335.821 137.631 340 116.493 340Z" fill="#2A1E1E"/>
<path d="M310.182 340C295.219 340 282.038 336.418 270.638 329.253C259.475 322.088 250.688 312.058 244.276 299.162C238.101 286.266 235.013 271.459 235.013 254.741C235.013 236.591 238.576 220.471 245.701 206.38C252.826 192.29 262.444 181.185 274.557 173.065C286.907 164.945 300.919 160.885 316.594 160.885C324.907 160.885 333.1 162.557 341.175 165.9C349.25 169.005 356.019 173.304 361.481 178.797V164.109C363.619 163.393 366.113 162.796 368.963 162.318C371.813 161.84 374.781 161.602 377.869 161.602C383.569 161.602 388.913 162.437 393.9 164.109V272.295C393.9 285.43 395.563 294.863 398.888 300.595C402.45 306.326 408.031 309.192 415.631 309.192C418.956 309.192 421.45 310.625 423.113 313.491C425.013 316.357 425.963 320.178 425.963 324.954C425.963 328.775 424.894 332.238 422.756 335.343C420.856 338.448 417.65 340 413.138 340C390.575 340 375.375 330.686 367.538 312.058C360.65 320.894 352.338 327.82 342.6 332.835C332.863 337.612 322.057 340 310.182 340ZM268.144 254.741C268.144 271.697 271.944 285.071 279.544 294.863C287.382 304.416 298.069 309.192 311.607 309.192C326.569 309.192 338.563 304.058 347.588 293.788C356.85 283.519 361.481 270.026 361.481 253.308V213.187C356.731 206.738 350.675 201.604 343.313 197.783C335.95 193.723 328.35 191.693 320.513 191.693C310.3 191.693 301.275 194.439 293.438 199.932C285.6 205.425 279.425 212.948 274.913 222.501C270.4 231.815 268.144 242.561 268.144 254.741Z" fill="#2A1E1E"/>
<path d="M413.138 340C410.05 340 407.545 338.567 405.645 335.701C403.745 332.835 402.795 329.134 402.795 324.596C402.795 314.327 407.081 309.192 415.631 309.192C423.231 309.192 429.989 305.371 435.926 297.729C442.101 289.848 447.445 276.832 451.958 258.682L462.645 216.769C472.62 179.513 491.62 160.885 519.645 160.885C530.332 160.885 539.357 164.109 546.72 170.557C554.082 176.767 559.189 185.245 562.039 195.992C568.689 184.767 577.239 176.17 587.689 170.199C598.138 163.99 609.776 160.885 622.601 160.885C641.126 160.885 655.376 166.975 665.351 179.155C675.563 191.335 680.67 208.41 680.67 230.382V272.295C680.67 285.43 682.332 294.863 685.657 300.595C689.219 306.326 694.801 309.192 702.401 309.192C705.726 309.192 708.219 310.625 709.882 313.491C711.782 316.357 712.732 320.178 712.732 324.954C712.732 328.775 711.663 332.238 709.526 335.343C707.626 338.448 704.419 340 699.907 340C665.47 340 648.251 318.745 648.251 276.235V230.382C648.251 204.589 638.157 191.693 617.97 191.693C607.52 191.693 598.257 195.872 590.182 204.231C582.345 212.59 576.17 224.172 571.657 238.979C567.382 253.786 565.245 270.981 565.245 290.564V334.985C562.87 335.701 560.257 336.298 557.407 336.776C554.557 337.254 551.826 337.492 549.214 337.492C543.514 337.492 538.17 336.657 533.182 334.985V220.709C533.182 211.395 531.995 204.231 529.62 199.216C527.245 194.2 522.97 191.693 516.795 191.693C511.807 191.693 507.532 193.962 503.97 198.499C500.407 203.037 497.32 210.321 494.708 220.351L481.526 271.936C475.351 295.579 466.801 312.894 455.876 323.88C444.951 334.627 430.713 340 413.138 340Z" fill="#2A1E1E"/>
<path d="M699.796 340C696.708 340 694.214 338.567 692.314 335.701C690.414 332.835 689.464 329.134 689.464 324.596C689.464 314.327 693.739 309.192 702.289 309.192C709.177 309.192 716.183 308.118 723.308 305.968C730.433 303.58 738.745 299.639 748.245 294.147C738.983 277.907 734.352 258.801 734.352 236.83C734.352 222.023 737.083 209.007 742.546 197.783C748.008 186.319 755.608 177.364 765.345 170.915C775.083 164.229 786.127 160.885 798.477 160.885C808.927 160.885 818.189 163.393 826.264 168.408C834.339 173.184 840.633 179.871 845.145 188.469C849.658 197.066 851.914 206.977 851.914 218.202C851.914 233.486 847.402 247.457 838.377 260.115C829.589 272.772 814.627 286.504 793.489 301.311C801.089 306.804 811.302 309.55 824.127 309.55C827.452 309.55 830.064 310.983 831.964 313.849C833.864 316.715 834.814 320.536 834.814 325.313C834.814 329.85 833.745 333.432 831.608 336.059C829.47 338.686 826.383 340 822.345 340C810.945 340 800.258 338.089 790.283 334.268C780.308 330.447 771.995 325.193 765.345 318.506C742.545 332.835 720.696 340 699.796 340ZM765.345 233.964C765.345 252.831 768.67 267.876 775.32 279.101C790.758 268.354 802.158 257.846 809.52 247.577C817.12 237.307 820.92 227.516 820.92 218.202C820.92 209.604 818.783 202.917 814.508 198.141C810.47 193.126 804.77 190.618 797.408 190.618C788.145 190.618 780.427 194.797 774.252 203.156C768.314 211.515 765.345 221.784 765.345 233.964Z" fill="#2A1E1E"/>
<path d="M822.482 340C819.157 340 816.544 338.567 814.644 335.701C812.507 332.835 811.438 329.134 811.438 324.596C811.438 319.82 812.625 316.118 815 313.491C817.375 310.864 820.463 309.55 824.263 309.55C839.225 309.55 852.882 305.371 865.232 297.012C877.582 288.654 887.557 277.31 895.157 262.981C894.682 259.159 894.444 255.219 894.444 251.159C894.444 233.486 897.769 217.963 904.419 204.589C911.069 190.976 920.213 180.349 931.85 172.707C943.725 164.826 957.263 160.885 972.462 160.885C983.862 160.885 994.194 163.154 1003.46 167.691C1012.96 171.99 1020.67 178.319 1026.61 186.678C1023.76 196.469 1016.87 203.514 1005.95 207.813C998.112 197.066 987.306 191.693 973.531 191.693C959.756 191.693 948.594 196.947 940.044 207.455C931.731 217.724 927.575 231.695 927.575 249.368C927.575 267.518 932.8 282.086 943.25 293.072C953.938 304.058 969.019 309.55 988.494 309.55C991.581 309.55 994.075 311.103 995.975 314.207C998.112 317.073 999.181 320.775 999.181 325.313C999.181 329.85 997.994 333.432 995.619 336.059C993.481 338.686 990.394 340 986.356 340C968.306 340 952.394 336.537 938.619 329.611C925.081 322.447 914.513 312.536 906.913 299.878C896.938 312.775 884.707 322.686 870.219 329.611C855.732 336.537 839.819 340 822.482 340Z" fill="#2A1E1E"/>
<path d="M986.69 340C983.365 340 980.753 338.567 978.853 335.701C976.715 332.835 975.646 329.134 975.646 324.596C975.646 319.82 976.834 316.118 979.209 313.491C981.584 310.864 984.694 309.55 988.494 309.55C1002.98 309.55 1016.14 305.729 1028.02 298.087C1040.13 290.206 1049.98 279.459 1057.58 265.846C1056.87 260.831 1056.51 255.577 1056.51 250.084C1056.51 232.889 1060.2 217.605 1067.56 204.231C1074.92 190.857 1084.9 180.349 1097.48 172.707C1110.31 164.826 1124.68 160.885 1140.59 160.885C1156.5 160.885 1170.75 164.826 1183.34 172.707C1195.93 180.349 1205.78 190.857 1212.91 204.231C1220.27 217.605 1223.95 232.889 1223.95 250.084C1223.95 267.279 1220.27 282.683 1212.91 296.296C1205.78 309.909 1195.93 320.656 1183.34 328.537C1170.99 336.179 1156.74 340 1140.59 340C1125.39 340 1111.73 336.537 1099.62 329.611C1087.51 322.686 1077.77 313.252 1070.41 301.311C1060.43 313.73 1048.2 323.283 1033.72 329.97C1019.47 336.657 1003.79 340 986.69 340ZM1140.23 309.192C1155.43 309.192 1167.55 303.819 1176.57 293.072C1185.83 282.325 1190.46 267.996 1190.46 250.084C1190.46 232.65 1185.83 218.56 1176.57 207.813C1167.55 197.066 1155.55 191.693 1140.59 191.693C1125.63 191.693 1113.4 197.186 1103.9 208.171C1094.63 218.918 1090 233.128 1090 250.801C1090 268.235 1094.51 282.325 1103.54 293.072C1112.8 303.819 1125.03 309.192 1140.23 309.192Z" fill="#2A1E1E"/>
<path d="M250.196 147.437C248.873 147.437 247.417 147.302 245.83 147.032C244.375 146.896 242.787 146.694 241.067 146.423V17.0354H194.037C191.92 10.6809 191.92 5.00245 194.037 0H306.553C307.612 2.16323 308.141 4.86726 308.141 8.11209C308.141 11.3569 307.612 14.3314 306.553 17.0354H259.721V146.423C258.001 146.694 256.347 146.896 254.76 147.032C253.172 147.302 251.651 147.437 250.196 147.437Z" fill="#FAEDDF"/>
<path d="M344.141 149.262C335.145 149.262 327.075 147.099 319.931 142.773C312.919 138.311 307.363 132.227 303.262 124.521C299.293 116.814 297.309 108.094 297.309 98.3591C297.309 88.6246 299.359 79.9717 303.46 72.4004C307.561 64.8291 313.118 58.8803 320.13 54.5538C327.273 50.0922 335.277 47.8613 344.141 47.8613C353.005 47.8613 360.942 50.0922 367.954 54.5538C374.966 58.8803 380.456 64.8291 384.425 72.4004C388.526 79.9717 390.576 88.6246 390.576 98.3591C390.576 108.094 388.526 116.814 384.425 124.521C380.456 132.227 374.966 138.311 367.954 142.773C361.075 147.099 353.137 149.262 344.141 149.262ZM343.943 131.821C352.409 131.821 359.156 128.779 364.184 122.695C369.343 116.611 371.923 108.499 371.923 98.3591C371.923 93.3566 371.195 88.7598 369.74 84.5685C361.802 84.2981 354.592 82.6757 348.11 79.7013C341.76 76.7268 336.733 72.6708 333.028 67.5331C327.736 69.8316 323.569 73.7524 320.526 79.2957C317.484 84.7037 315.962 91.1934 315.962 98.7647C315.962 108.634 318.476 116.611 323.503 122.695C328.663 128.779 335.476 131.821 343.943 131.821Z" fill="#FAEDDF"/>
<path d="M436.166 147.843C432.858 147.843 429.882 147.37 427.236 146.423V81.7293C427.236 70.778 424.193 65.3023 418.107 65.3023C415.197 65.3023 411.162 66.5867 406.002 69.1556C400.843 71.7244 394.956 75.3748 388.341 80.1069C387.15 80.9181 385.893 81.3237 384.571 81.3237C382.718 81.3237 380.866 80.2421 379.014 78.0789C377.162 75.9156 376.236 73.6172 376.236 71.1836C376.236 68.8852 377.36 66.9923 379.609 65.5051C389.002 59.1507 396.609 54.6214 402.43 51.9174C408.251 49.2133 414.006 47.8613 419.695 47.8613C425.383 47.8613 430.212 49.5513 434.181 52.9314C438.282 56.1762 441.193 60.7055 442.913 66.5191C445.955 60.5703 449.924 55.9734 454.819 52.7286C459.846 49.4837 465.469 47.8613 471.687 47.8613C484.652 47.8613 493.449 54.689 498.079 68.3444C501.255 61.8547 505.554 56.8522 510.978 53.337C516.402 49.6866 522.554 47.8613 529.433 47.8613C538.826 47.8613 546.036 50.9034 551.064 56.9874C556.091 63.0715 558.604 71.6568 558.604 82.7433V110.933C558.604 118.369 559.53 123.709 561.383 126.954C563.367 130.199 566.476 131.821 570.709 131.821C572.561 131.821 573.951 132.633 574.877 134.255C575.935 135.877 576.464 138.041 576.464 140.745C576.464 142.908 575.869 144.868 574.678 146.626C573.62 148.384 571.834 149.262 569.32 149.262C550.138 149.262 540.546 137.23 540.546 113.164V87.205C540.546 80.1745 539.289 74.7664 536.776 70.9808C534.262 67.1951 530.69 65.3023 526.06 65.3023C519.048 65.3023 513.492 69.426 509.391 77.6733C505.422 85.7853 503.437 97.0747 503.437 111.541V146.423C502.115 146.829 500.659 147.167 499.072 147.437C497.484 147.708 495.963 147.843 494.508 147.843C491.332 147.843 488.29 147.37 485.379 146.423V90.0442C485.379 82.0673 483.99 75.9832 481.212 71.792C478.566 67.4655 474.597 65.3023 469.305 65.3023C464.543 65.3023 460.309 67.2627 456.605 71.1836C453.033 74.9692 450.189 80.3773 448.072 87.4078C446.088 94.303 445.095 102.348 445.095 111.541V146.423C443.772 146.829 442.317 147.167 440.73 147.437C439.142 147.708 437.621 147.843 436.166 147.843Z" fill="#FAEDDF"/>
<path d="M570.774 131.821C575.272 131.821 579.638 129.591 583.872 125.129C588.237 120.532 591.876 114.38 594.786 106.674C594.654 104.781 594.588 102.888 594.588 100.996C594.588 90.7202 596.572 81.5941 600.541 73.6172C604.51 65.6403 609.868 59.3535 616.615 54.7566C623.494 50.1598 631.299 47.8613 640.031 47.8613C644.661 47.8613 649.225 48.8077 653.723 50.7006C658.221 52.4582 661.992 54.8918 665.035 58.0014V49.6866C666.225 49.2809 667.614 48.9429 669.202 48.6725C670.789 48.4021 672.443 48.2669 674.163 48.2669C677.338 48.2669 680.315 48.7401 683.093 49.6866V109.108C683.093 116.273 684.151 121.884 686.268 125.94C688.517 129.861 692.221 131.821 697.381 131.821C698.836 131.821 700.423 131.483 702.143 130.807C703.863 130.131 705.649 129.117 707.501 127.765C709.75 128.847 711.602 130.74 713.058 133.444C714.513 136.013 715.174 138.582 715.042 141.15C712.925 143.584 710.213 145.544 706.906 147.032C703.598 148.519 700.027 149.262 696.19 149.262H695.992C683.027 149.262 674.361 143.314 669.996 131.416C666.159 136.959 661.33 141.353 655.509 144.598C649.821 147.708 643.47 149.262 636.459 149.262C628.786 149.262 621.973 147.572 616.019 144.192C610.198 140.677 605.436 135.877 601.731 129.793C593.529 142.773 582.747 149.262 569.385 149.262C567.666 149.262 566.276 148.451 565.218 146.829C564.16 145.206 563.631 143.111 563.631 140.542C563.631 134.728 566.012 131.821 570.774 131.821ZM613.043 100.996C613.043 110.595 615.159 118.166 619.393 123.709C623.759 129.117 629.712 131.821 637.253 131.821C645.587 131.821 652.268 128.915 657.295 123.101C662.455 117.287 665.035 109.648 665.035 100.184V77.4705C662.389 73.82 659.015 70.9132 654.914 68.75C650.813 66.4515 646.579 65.3023 642.214 65.3023C636.525 65.3023 631.498 66.8571 627.132 69.9668C622.766 73.0764 619.327 77.3353 616.813 82.7433C614.299 88.0162 613.043 94.1002 613.043 100.996Z" fill="#FAEDDF"/>
<path d="M784.553 92.8834C781.642 92.2074 778.93 91.0582 776.416 89.4358C773.903 87.8134 771.786 85.5825 770.066 82.7433L776.813 72.4004C783.163 62.8011 788.852 56.3114 793.879 52.9314C799.039 49.5513 804.595 47.8613 810.549 47.8613C816.502 47.8613 821.529 49.6866 825.63 53.337C829.731 56.8522 832.576 61.6519 834.163 67.7359C837.867 61.3815 842.63 56.5142 848.451 53.1342C854.272 49.6189 860.754 47.8613 867.898 47.8613C878.217 47.8613 886.155 51.309 891.711 58.2042C897.4 65.0995 900.244 74.7664 900.244 87.205V110.933C900.244 118.369 901.17 123.709 903.023 126.954C905.007 130.199 908.116 131.821 912.349 131.821C914.201 131.821 915.591 132.633 916.517 134.255C917.575 135.877 918.104 138.041 918.104 140.745C918.104 142.908 917.509 144.868 916.318 146.626C915.26 148.384 913.474 149.262 910.96 149.262C891.778 149.262 882.186 137.23 882.186 113.164V87.205C882.186 72.6032 876.564 65.3023 865.319 65.3023C859.498 65.3023 854.338 67.6683 849.84 72.4004C845.474 77.1324 842.035 83.6897 839.521 92.0722C837.14 100.455 835.949 110.189 835.949 121.276V146.423C834.626 146.829 833.171 147.167 831.583 147.437C829.996 147.708 828.474 147.843 827.019 147.843C823.844 147.843 820.868 147.37 818.089 146.423V81.7293C818.089 76.4564 817.428 72.4004 816.105 69.5612C814.782 66.7219 812.401 65.3023 808.961 65.3023C806.977 65.3023 804.728 66.2487 802.214 68.1416C799.833 69.8992 796.591 74.0228 792.49 80.5125L784.553 92.8834Z" fill="#FAEDDF"/>
<path d="M912.428 131.821C916.794 131.821 921.028 129.726 925.129 125.535C929.362 121.208 932.934 115.462 935.845 108.296C935.315 105.052 935.051 101.739 935.051 98.3591C935.051 88.6246 937.101 79.9717 941.203 72.4004C945.304 64.8291 950.86 58.8803 957.872 54.5538C965.016 50.0922 973.02 47.8613 981.883 47.8613C990.747 47.8613 998.685 50.0922 1005.7 54.5538C1012.71 58.8803 1018.2 64.8291 1022.17 72.4004C1026.27 79.9717 1028.32 88.6246 1028.32 98.3591C1028.32 108.094 1026.27 116.814 1022.17 124.521C1018.2 132.227 1012.71 138.311 1005.7 142.773C998.817 147.099 990.879 149.262 981.883 149.262C973.813 149.262 966.471 147.505 959.856 143.99C953.374 140.339 948.016 135.404 943.782 129.185C935.58 142.57 924.666 149.262 911.039 149.262C909.32 149.262 907.93 148.451 906.872 146.829C905.814 145.206 905.284 143.111 905.284 140.542C905.284 134.728 907.666 131.821 912.428 131.821ZM981.685 131.821C990.152 131.821 996.899 128.779 1001.93 122.695C1007.09 116.611 1009.67 108.499 1009.67 98.3591C1009.67 88.4894 1007.09 80.5125 1001.93 74.4284C996.899 68.3444 990.218 65.3023 981.883 65.3023C973.549 65.3023 966.736 68.412 961.444 74.6312C956.284 80.7153 953.704 88.7598 953.704 98.7647C953.704 108.634 956.218 116.611 961.245 122.695C966.405 128.779 973.218 131.821 981.685 131.821Z" fill="#FAEDDF"/>
</svg>
